HIERARCHY
ROOT joint_Root
{
	OFFSET 0.0 0.0 0.0
	CHANNELS 6 Xposition Yposition Zposition Zrotation Xrotation Yrotation 
	JOINT Hips
	{
		OFFSET 4.5925 91.4895 -427.239
		CHANNELS 6 Xposition Yposition Zposition Zrotation Xrotation Yrotation 
		JOINT Spine
		{
			OFFSET 15.7357 0.0 0.0
			CHANNELS 6 Xposition Yposition Zposition Zrotation Xrotation Yrotation 
			JOINT Chest
			{
				OFFSET 8.98455 -0.406207 0.0
				CHANNELS 6 Xposition Yposition Zposition Zrotation Xrotation Yrotation 
				JOINT Neck
				{
					OFFSET 16.3773 0.0 0.0
					CHANNELS 6 Xposition Yposition Zposition Zrotation Xrotation Yrotation 
					JOINT Head
					{
						OFFSET 6.45672 0.0 0.0
						CHANNELS 6 Xposition Yposition Zposition Zrotation Xrotation Yrotation 
						End Site
						{
							OFFSET 0.0 0.0 0.0
						}
					}
				}
				JOINT Shoulder_L
				{
					OFFSET 12.9942 -0.242716 4.98039
					CHANNELS 6 Xposition Yposition Zposition Zrotation Xrotation Yrotation 
					JOINT UpperArm_L
					{
						OFFSET 5.34809 0.0 0.0
						CHANNELS 6 Xposition Yposition Zposition Zrotation Xrotation Yrotation 
						JOINT LowerArm_L
						{
							OFFSET 24.3286 1.87007e-05 0.0
							CHANNELS 6 Xposition Yposition Zposition Zrotation Xrotation Yrotation 
							JOINT Hand_L
							{
								OFFSET 22.2916 0.0 0.0
								CHANNELS 6 Xposition Yposition Zposition Zrotation Xrotation Yrotation 
								End Site
								{
									OFFSET 0.0 0.0 0.0
								}
							}
						}
					}
				}
				JOINT Shoulder_R
				{
					OFFSET 12.9945 -0.242716 -4.98039
					CHANNELS 6 Xposition Yposition Zposition Zrotation Xrotation Yrotation 
					JOINT UpperArm_R
					{
						OFFSET -5.34813 0.0 0.0
						CHANNELS 6 Xposition Yposition Zposition Zrotation Xrotation Yrotation 
						JOINT LowerArm_R
						{
							OFFSET -24.3289 0.000322201 0.0
							CHANNELS 6 Xposition Yposition Zposition Zrotation Xrotation Yrotation 
							JOINT Hand_R
							{
								OFFSET -22.2915 -0.000108084 0.0
								CHANNELS 6 Xposition Yposition Zposition Zrotation Xrotation Yrotation 
								End Site
								{
									OFFSET 0.0 0.0 0.0
								}
							}
						}
					}
				}
			}
		}
		JOINT UpperLeg_L
		{
			OFFSET -2.19248 -6.46944 0.0
			CHANNELS 6 Xposition Yposition Zposition Zrotation Xrotation Yrotation 
			JOINT LowerLeg_L
			{
				OFFSET 39.0811 0.0 -1.23785e-05
				CHANNELS 6 Xposition Yposition Zposition Zrotation Xrotation Yrotation 
				JOINT Foot_L
				{
					OFFSET 40.9854 0.0 -1.26872e-05
					CHANNELS 6 Xposition Yposition Zposition Zrotation Xrotation Yrotation 
					JOINT Toes_L
					{
						OFFSET 11.7543 0.0 0.0
						CHANNELS 6 Xposition Yposition Zposition Zrotation Xrotation Yrotation 
						End Site
						{
							OFFSET 0.0 0.0 0.0
						}
					}
				}
			}
		}
		JOINT UpperLeg_R
		{
			OFFSET -2.19251 6.46944 0.0
			CHANNELS 6 Xposition Yposition Zposition Zrotation Xrotation Yrotation 
			JOINT LowerLeg_R
			{
				OFFSET -39.0811 -0.00228153 -0.0401928
				CHANNELS 6 Xposition Yposition Zposition Zrotation Xrotation Yrotation 
				JOINT Foot_R
				{
					OFFSET -40.9854 0.0 0.0
					CHANNELS 6 Xposition Yposition Zposition Zrotation Xrotation Yrotation 
					JOINT Toes_R
					{
						OFFSET -11.7543 0.0 0.0
						CHANNELS 6 Xposition Yposition Zposition Zrotation Xrotation Yrotation 
						End Site
						{
							OFFSET 0.0 0.0 0.0
						}
					}
				}
			}
		}
	}
}
MOTION
Frames:	6
Frame Time:	0.0333333
0.000000 0.000000 0.000000 0.000000 0.000000 -0.000000 -2.706470 91.317900 1.683340 89.977500 -1.423760 3.820520 15.735700 0.000005 -0.000001 84.083000 87.131500 -84.224700 8.984550 -0.406207 -0.000000 -2.060250 -0.579124 -0.293690 16.377300 -0.000001 -0.000001 12.918700 -2.940370 1.449090 6.456720 -0.000001 -0.000000 10.303100 -2.727420 -1.835100 12.994200 -0.242716 4.980390 -84.024000 -11.990200 -63.256900 5.348090 -0.000007 -0.000001 -38.868800 -53.936900 -85.151100 24.328600 0.000019 0.000005 23.959400 16.371900 -57.613100 22.291600 -0.000001 0.000005 25.119700 5.410350 -3.277090 12.994500 -0.242716 -4.980390 94.336400 -11.186900 -68.651500 -5.348130 -0.000001 -0.000004 -34.253500 -53.538300 -84.593000 -24.328900 0.000322 -0.000009 10.387100 8.113310 -52.409400 -22.291500 -0.000108 -0.000004 21.241400 5.628560 -13.227500 -2.192480 -6.469440 -0.000000 -174.295000 -13.651200 -2.661520 39.081100 -0.000007 -0.000012 -0.189719 0.388487 26.029000 40.985400 -0.000006 -0.000013 -1.408300 7.261330 -68.944700 11.754300 -0.000000 0.000003 -0.000224 -0.002038 -16.654200 -2.192510 6.469440 -0.000001 176.091000 24.468300 179.624000 -39.081100 -0.002282 -0.040193 -0.033714 0.076655 25.780700 -40.985400 0.000008 0.000006 8.044470 14.847900 -72.701100 -11.754300 -0.000006 -0.000006 -0.000058 -0.000974 -16.613400
0.000000 0.000000 0.000000 0.000000 0.000000 -0.000000 -2.674820 91.314200 1.717810 89.998000 -1.366360 3.783190 15.735700 0.000005 -0.000001 83.572900 87.122100 -83.719700 8.984550 -0.406207 -0.000000 -2.047220 -0.631565 -0.304839 16.377300 -0.000001 -0.000001 12.739200 -3.051040 1.496460 6.456720 -0.000001 -0.000000 10.114800 -2.832020 -1.778220 12.994200 -0.242716 4.980390 -84.280900 -11.455000 -63.238600 5.348090 -0.000007 -0.000001 -38.572500 -53.662500 -83.976900 24.328600 0.000019 0.000005 23.817900 15.390100 -58.985600 22.291600 -0.000001 0.000005 24.311200 5.408510 -3.215730 12.994500 -0.242716 -4.980390 94.123300 -10.652600 -68.695200 -5.348130 -0.000001 -0.000004 -32.995500 -53.247100 -82.774300 -24.328900 0.000322 -0.000009 10.144600 7.605360 -53.514600 -22.291500 -0.000108 -0.000004 20.699600 5.618820 -12.535800 -2.192480 -6.469440 -0.000000 -174.337000 -13.658500 -2.688500 39.081100 -0.000007 -0.000012 -0.190819 0.390672 26.032900 40.985400 -0.000006 -0.000013 -1.372180 7.321670 -68.967100 11.754300 -0.000000 0.000003 -0.000230 -0.002085 -16.655900 -2.192510 6.469440 -0.000001 176.023000 24.551900 179.621000 -39.081100 -0.002282 -0.040193 -0.038549 0.086660 25.782300 -40.985400 0.000008 0.000006 7.945920 14.914700 -72.699700 -11.754300 -0.000006 -0.000006 -0.019497 -0.023283 -16.560100
0.000000 0.000000 0.000000 0.000000 0.000000 -0.000000 -2.641530 91.309700 1.726500 89.956500 -1.333350 3.805320 15.735700 0.000005 -0.000001 83.703300 87.082200 -83.839200 8.984550 -0.406207 -0.000000 -1.966510 -0.628319 -0.282416 16.377300 -0.000001 -0.000001 12.415900 -3.139840 1.581540 6.456720 -0.000001 -0.000000 9.978840 -2.911770 -1.735260 12.994200 -0.242716 4.980390 -84.642400 -10.766900 -63.343000 5.348090 -0.000007 -0.000001 -38.107200 -52.855200 -81.921600 24.328600 0.000019 0.000005 23.340800 13.631100 -61.360600 22.291600 -0.000001 0.000005 23.437400 5.400110 -2.940480 12.994500 -0.242716 -4.980390 93.796000 -9.869350 -68.838400 -5.348130 -0.000001 -0.000004 -31.373100 -52.438600 -80.032100 -24.328900 0.000322 -0.000009 9.930060 6.867340 -55.671100 -22.291500 -0.000108 -0.000004 20.237000 5.602590 -11.496200 -2.192480 -6.469440 -0.000000 -174.333000 -13.533000 -2.699410 39.081100 -0.000007 -0.000012 -0.190590 0.389099 26.096900 40.985400 -0.000006 -0.000013 -1.366880 7.222880 -69.011900 11.754300 -0.000000 0.000003 -0.000226 -0.002048 -16.654600 -2.192510 6.469440 -0.000001 176.038000 24.591000 179.653000 -39.081100 -0.002282 -0.040193 -0.035658 0.080665 25.784500 -40.985400 0.000008 0.000006 7.974660 14.890700 -72.712100 -11.754300 -0.000006 -0.000006 -0.000042 -0.000708 -16.602600
0.000000 0.000000 0.000000 0.000000 0.000000 -0.000000 -2.597610 91.286000 1.732070 89.924300 -1.361860 3.920580 15.735700 0.000005 -0.000001 84.493900 87.022600 -84.618600 8.984550 -0.406207 -0.000000 -1.839330 -0.560786 -0.258291 16.377300 -0.000001 -0.000001 12.071600 -3.224470 1.750660 6.456720 -0.000001 -0.000000 9.932760 -3.054910 -1.772180 12.994200 -0.242716 4.980390 -85.153600 -9.822370 -63.571900 5.348090 -0.000007 -0.000001 -37.302200 -51.222800 -78.753500 24.328600 0.000019 0.000005 21.962000 10.930300 -64.821200 22.291600 -0.000001 0.000005 22.565100 5.394670 -2.765160 12.994500 -0.242716 -4.980390 93.366900 -8.855830 -69.086100 -5.348130 -0.000001 -0.000004 -30.119700 -50.742300 -76.730200 -24.328900 0.000322 -0.000009 9.491880 5.735210 -59.142500 -22.291500 -0.000108 -0.000004 19.842700 5.585580 -10.512400 -2.192480 -6.469440 -0.000000 -174.323000 -13.415700 -2.663990 39.081100 -0.000007 -0.000012 -0.191301 0.387532 26.273000 40.985400 -0.000006 -0.000013 -1.352750 7.101790 -69.119400 11.754300 -0.000000 0.000003 -0.000231 -0.002090 -16.656100 -2.192510 6.469440 -0.000001 175.938000 24.580500 179.741000 -39.081100 -0.002282 -0.040193 -0.047734 0.105229 25.877300 -40.985400 0.000008 0.000006 7.699240 15.025900 -72.676600 -11.754300 -0.000006 -0.000006 -0.023236 -0.027751 -16.557300
0.000000 0.000000 0.000000 0.000000 0.000000 -0.000000 -2.551130 91.265600 1.725960 89.915100 -1.498780 4.092710 15.735700 0.000005 -0.000001 85.903600 86.955300 -86.049300 8.984550 -0.406207 -0.000000 -1.692780 -0.422859 -0.297503 16.377300 -0.000001 -0.000001 11.614500 -3.345410 1.899680 6.456720 -0.000001 -0.000000 10.020600 -3.238350 -1.587420 12.994200 -0.242716 4.980390 -85.808100 -8.604330 -63.900200 5.348090 -0.000007 -0.000001 -36.112300 -48.624000 -74.459600 24.328600 0.000019 0.000005 20.640300 8.077330 -69.546400 22.291600 -0.000001 0.000005 21.986000 5.383770 -2.416490 12.994500 -0.242716 -4.980390 92.764700 -7.440270 -69.549300 -5.348130 -0.000001 -0.000004 -29.361800 -48.040000 -72.767300 -24.328900 0.000322 -0.000009 8.144300 3.998060 -64.041400 -22.291500 -0.000108 -0.000004 19.356200 5.571200 -9.749000 -2.192480 -6.469440 -0.000000 -174.296000 -13.511800 -2.540200 39.081100 -0.000007 -0.000012 -0.193834 0.390237 26.414300 40.985400 -0.000006 -0.000013 -1.321100 7.058360 -69.203500 11.754300 -0.000000 0.000003 -0.000247 -0.002213 -16.660500 -2.192510 6.469440 -0.000001 175.833000 24.448600 179.847000 -39.081100 -0.002282 -0.040193 -0.054391 0.118297 26.001500 -40.985400 0.000008 0.000006 7.580590 15.105000 -72.686300 -11.754300 -0.000006 -0.000006 -0.015143 -0.018089 -16.563600
0.000000 0.000000 0.000000 0.000000 0.000000 -0.000000 -2.493120 91.211800 1.723310 89.906000 -1.653580 4.410210 15.735700 0.000005 -0.000001 87.264900 86.822900 -87.449100 8.984550 -0.406207 -0.000000 -1.419570 -0.288380 -0.371844 16.377300 -0.000001 -0.000001 11.085200 -3.423930 2.005220 6.456720 -0.000001 -0.000000 10.059100 -3.356390 -1.196980 12.994200 -0.242716 4.980390 -86.463200 -7.360600 -64.246200 5.348090 -0.000007 -0.000001 -35.156000 -44.812100 -69.055500 24.328600 0.000019 0.000005 20.362400 5.497640 -75.529100 22.291600 -0.000001 0.000005 21.913100 5.366220 -1.870410 12.994500 -0.242716 -4.980390 92.025800 -5.590370 -70.044900 -5.348130 -0.000001 -0.000004 -28.752300 -44.313100 -68.030800 -24.328900 0.000322 -0.000009 5.989000 2.201070 -69.919900 -22.291500 -0.000108 -0.000004 19.356600 5.561810 -9.277460 -2.192480 -6.469440 -0.000000 -174.232000 -13.631200 -2.349340 39.081100 -0.000007 -0.000012 -0.196772 0.390394 26.749900 40.985400 -0.000006 -0.000013 -1.260060 7.056980 -69.399800 11.754300 -0.000000 0.000003 -0.000253 -0.002253 -16.661900 -2.192510 6.469440 -0.000001 175.566000 24.415200 -179.936000 -39.081100 -0.002282 -0.040193 -0.078843 0.166430 26.271800 -40.985400 0.000008 0.000006 7.139000 15.377900 -72.679500 -11.754300 -0.000006 -0.000006 -0.028195 -0.033679 -16.553600
